{"title":"Rain Man 1988 720p BRRip AC3 x264-KaRa","uid":7044041,"size":4369933239,"categoryP":"video","categoryS":"hd___movies","magnet":"?xt=urn:btih:cd16dac7e3705f54c33ddf746def1ca5801e3b5b&amp;dn=Rain+Man+1988+720p+BRRip+AC3+x264-KaRa&amp;tr=udp%3A%2F%2Ftracker.openbittorrent.com%3A80&amp;tr=udp%3A%2F%2Fopen.demonii.com%3A1337&amp;tr=udp%3A%2F%2Ftracker.coppersurfer.tk%3A6969&amp;tr=udp%3A%2F%2Fexodus.desync.com%3A6969","seeders":1,"leechers":2,"uploader":"PhoenixRG","files":11,"time":1329662509,"description":"Cover:\n\n[b]Encoded/Released By..:[/b] karakurachow (KaRa)\n[b]Release Name.........:[/b] Rain Man 1988 720p BluRay AC3 x264-KaRa\n[b]Genre................:[/b] Drama\n[b]Subtitle(s)..........:[/b] English\n[b]IMDB.................:[/b] [url]http://www.imdb.com/title/tt0095953/[/url]\n[b]Plot / Synopsis......:[/b] Selfish yuppie Charlie Babbitt's father left a fortune to his savant brother Raymond and a pittance to Charlie; they travel cross-country. \n[b]Source...............:[/b] Rain Man 1988 Blu-ray CEE 1080p AVC DTS-HD MA 5 1-CHDBits (Thanks!)\n\n[b]General[/b]\nComplete name                            : Rain Man 1988 720p BluRay AC3 x264-KaRa\nFormat                                   : Matroska\nFormat version                           : Version 2\nFile size                                : 4.03 GiB\nDuration                                 : 2h 13mn\nOverall bit rate                         : 4 310 Kbps\nEncoded date                             : UTC 2012-02-18 15:52:04\nWriting application                      : mkvmerge v5.2.1 ('A Far Off Place') built on Jan  2 2012 23:21:10\nWriting library                          : libebml v1.2.3 + libmatroska v1.3.0\n\n\n[b]Video[/b]\nID                                       : 1\nFormat                                   : AVC\nFormat/Info                              : Advanced Video Codec\nFormat profile                           : &lt;a class=&quot;__cf_email__&quot; href=&quot;/cdn-cgi/l/email-protection&quot; data-cfemail=&quot;cd85a4aaa58d81fee3fc&quot;&gt;[email&amp;#160;protected]&lt;/a&gt;&lt;script cf-hash='f9e31' type=&quot;text/javascript&quot;&gt;\n/* &lt;![CDATA[ */!function(){try{var t=&quot;currentScript&quot;in document?document.currentScript:function(){for(var t=document.getElementsByTagName(&quot;script&quot;),e=t.length;e--;)if(t[e].getAttribute(&quot;cf-hash&quot;))return t[e]}();if(t&amp;&amp;t.previousSibling){var e,r,n,i,c=t.previousSibling,a=c.getAttribute(&quot;data-cfemail&quot;);if(a){for(e=&quot;&quot;,r=parseInt(a.substr(0,2),16),n=2;a.length-n;n+=2)i=parseInt(a.substr(n,2),16)^r,e+=String.fromCharCode(i);e=document.createTextNode(e),c.parentNode.replaceChild(e,c)}}}catch(u){}}();/* ]]&gt; */&lt;/script&gt;\nFormat settings, CABAC                   : Yes\nFormat settings, ReFrames                : 4 frames\nCodec ID                                 : V_MPEG4/ISO/AVC\nDuration                                 : 2h 13mn\nBit rate                                 : 3 862 Kbps\nWidth                                    : 1 280 pixels\nHeight                                   : 688 pixels\nDisplay aspect ratio                     : 1.860\nFrame rate                               : 23.976 fps\nColor space                              : YUV\nChroma subsampling                       : 4:2:0\nBit depth                                : 8 bits\nScan type                                : Progressive\nBits/(Pixel*Frame)                       : 0.183\nStream size                              : 3.53 GiB (88%)\n\n[b]Audio[/b]\nID                                       : 2\nFormat                                   : AC-3\nFormat/Info                              : Audio Coding 3\nMode extension                           : CM (complete main)\nCodec ID                                 : A_AC3\nDuration                                 : 2h 13mn\nBit rate mode                            : Constant\nBit rate                                 : 448 Kbps\nChannel(s)                               : 6 channels\nChannel positions                        : Front: L C R, Side: L R, LFE\nSampling rate                            : 48.0 KHz\nBit depth                                : 16 bits\nCompression mode                         : Lossy\nStream size                              : 429 MiB (10%)\n\nScreenshots :\n &lt;a href=&quot;\nhttp://img821.imageshack.us/img821/5513/snapshot20120219041657.png&quot; rel=&quot;nofollow&quot; target=&quot;_NEW&quot;&gt;\nhttp://img821.imageshack.us/img821/5513/snapshot20120219041657.png&lt;/a&gt; &lt;a href=&quot;\nhttp://img860.imageshack.us/img860/3885/snapshot20120219041743.png&quot; rel=&quot;nofollow&quot; target=&quot;_NEW&quot;&gt;\nhttp://img860.imageshack.us/img860/3885/snapshot20120219041743.png&lt;/a&gt;\n]http://img713.imageshack.us/img713/3143/snapshot20120219041917.png &lt;a href=&quot;\nhttp://img96.imageshack.us/img96/7084/snapshot20120219042119.png&quot; rel=&quot;nofollow&quot; target=&quot;_NEW&quot;&gt;\nhttp://img96.imageshack.us/img96/7084/snapshot20120219042119.png&lt;/a&gt; &lt;a href=&quot;\nhttp://img542.imageshack.us/img542/9193/thumbs20120219032858.png&quot; rel=&quot;nofollow&quot; target=&quot;_NEW&quot;&gt;\nhttp://img542.imageshack.us/img542/9193/thumbs20120219032858.png&lt;/a&gt;\n\n\nTrailer\n\n\nGreets &amp; Thanks To : HDLiTE,X,LKRG,Bubanee,Noir,CHD,FXG,3Li,AMIABLE,aAF,KingdomRG,UnKnOwN,SaM,HDMaNiAcS,ReleaseLoungeRG,IMAGINE,DDR,CiNEFiLE,blackjesus,TheFalcon007,NPW,CHD,CtrlHD,HDChina,\n                     Feel-Free,HDSceneRG,greenbud1969,HiDt,MXMG,ExtraTorrentRG,SamuraiRG,FLAWL3S &amp; To All Other Releasers Past &amp; Present...\n\n\nQuality Release Brought To You By KaRa 2012Ã‚Â©","torrent":{"xt":"urn:btih:cd16dac7e3705f54c33ddf746def1ca5801e3b5b","amp;dn":"Rain+Man+1988+720p+BRRip+AC3+x264-KaRa","amp;tr":["udp%3A%2F%2Ftracker.openbittorrent.com%3A80","udp%3A%2F%2Fopen.demonii.com%3A1337","udp%3A%2F%2Ftracker.coppersurfer.tk%3A6969","udp%3A%2F%2Fexodus.desync.com%3A6969"],"infoHash":"cd16dac7e3705f54c33ddf746def1ca5801e3b5b","infoHashBuffer":{"type":"Buffer","data":[205,22,218,199,227,112,95,84,195,61,223,116,109,239,28,165,128,30,59,91]},"announce":[],"urlList":[]}}